<svg width="26" height="18" viewBox="0 0 26 18" fill="none" xmlns="http://www.w3.org/2000/svg">
<path d="M0 2.53663V15.2195C0 15.8923 0.267399 16.5374 0.743137 17.0132C1.21865 17.4887 1.86382 17.7561 2.53663 17.7561H23.4634C24.1362 17.7561 24.7813 17.4887 25.2569 17.0132C25.7326 16.5375 26 15.8923 26 15.2195V2.53663C26 1.86382 25.7326 1.21869 25.2569 0.742911C24.7813 0.267394 24.1362 0 23.4634 0H2.53663C1.86382 0 1.21869 0.2674 0.743137 0.742911C0.267399 1.21865 0 1.86382 0 2.53663ZM23.4633 16.4878H2.53657C2.20017 16.4878 1.87769 16.3542 1.63971 16.1164C1.40196 15.8785 1.26837 15.556 1.26837 15.2196V5.70743H24.7317V15.2196C24.7317 15.556 24.5981 15.8785 24.3603 16.1164C24.1224 16.3542 23.7999 16.4878 23.4635 16.4878H23.4633ZM24.7315 2.53663V4.43918H1.26817V2.53663C1.26817 2.20023 1.40176 1.87774 1.63952 1.63977C1.8775 1.40201 2.19997 1.26842 2.53638 1.26842H23.4631C23.7995 1.26842 24.122 1.40201 24.36 1.63977C24.5977 1.87775 24.7313 2.20022 24.7313 2.53663H24.7315Z" fill="black"/>
<path d="M8.85875 7.9461H3.82377C3.47343 7.9461 3.18945 8.23009 3.18945 8.58019V13.6154C3.18945 13.7835 3.25625 13.9449 3.37523 14.0637C3.49423 14.1827 3.65546 14.2495 3.82377 14.2495H8.85876C9.02707 14.2495 9.1883 14.1827 9.3073 14.0637C9.42607 13.9449 9.49286 13.7835 9.49286 13.6154V8.58019C9.49286 8.4121 9.42606 8.25087 9.3073 8.13187C9.1883 8.01288 9.02707 7.94609 8.85876 7.94609L8.85875 7.9461ZM8.22467 12.9813H4.45791V9.21456H8.22467V12.9813Z" fill="black"/>
<path d="M21.8587 12.0295H12.7015C12.3514 12.0295 12.0675 12.3135 12.0675 12.6636C12.0675 13.014 12.3514 13.2977 12.7015 13.2977H21.8587C22.2088 13.2977 22.4928 13.0139 22.4928 12.6636C22.4928 12.3135 22.2088 12.0295 21.8587 12.0295Z" fill="black"/>
<path d="M21.8587 8.89732H12.7015C12.3514 8.89732 12.0675 9.1813 12.0675 9.5314C12.0675 9.88174 12.3514 10.1655 12.7015 10.1655H21.8587C22.2088 10.1655 22.4928 9.88173 22.4928 9.5314C22.4928 9.18129 22.2088 8.89732 21.8587 8.89732Z" fill="black"/>
</svg>
