<svg width="24" height="22" viewBox="0 0 24 22" fill="none" xmlns="http://www.w3.org/2000/svg">
<path fill-rule="evenodd" clip-rule="evenodd" d="M7.15696 13.302H10.2827C10.5926 13.302 10.8456 13.5447 10.8456 13.8418V15.3624C10.8456 15.6595 10.5926 15.9021 10.2827 15.9021H7.15696C6.84738 15.9021 6.594 15.6595 6.594 15.3624V13.8418C6.594 13.5447 6.84739 13.302 7.15696 13.302ZM19.2333 4.15622L2.02605 8.5767L3.69338 14.5439V9.41546L3.69402 9.37587L3.69466 9.35638V9.35607L3.69562 9.33689V9.33658L3.69834 9.29776V9.29714L3.69994 9.27827V9.27765C3.73452 8.90781 3.90611 8.57451 4.16574 8.32603L4.17935 8.31298L4.19328 8.30024L4.20752 8.28751V8.2872L4.22177 8.27477L4.23602 8.26265V8.26234L4.25058 8.25022L4.26547 8.2384V8.23809L4.28035 8.22628L4.29524 8.21477L4.31029 8.20326L4.32566 8.19205V8.19175L4.34102 8.18085V8.18054L4.35639 8.16965L4.38776 8.14847V8.14816L4.41978 8.1276L4.43611 8.11747L4.46908 8.09768C4.48541 8.08816 4.50237 8.0788 4.51934 8.06959L4.53631 8.06069V8.06038L4.55328 8.05179L4.57057 8.0432V8.04289L4.60578 8.02632L4.62339 8.01834L4.641 8.01066L4.65893 8.00299L4.67686 7.99562V7.99532L4.6951 7.98826L4.7316 7.9746V7.97429C4.90912 7.90953 5.10105 7.87393 5.30227 7.87393H20.2721L19.2334 4.15663L19.2333 4.15622ZM1.45071 6.51909L18.658 2.09861L18.4768 1.45023C18.4246 1.26378 18.2267 1.15497 18.0322 1.20485L1.52529 5.445C1.34041 5.49257 1.20803 5.69361 1.26966 5.87118L1.45054 6.51893L1.45071 6.51909ZM21.5613 7.87356H22.3913C23.2744 7.87356 24 8.56888 24 9.41554V20.4577C24 21.3073 23.2774 22 22.3913 22H5.30203C4.41956 22 3.6933 21.304 3.6933 20.4577V18.6361C3.55227 18.4669 3.44887 18.2801 3.38932 18.0677L0.0671958 6.1797C-0.205729 5.39519 0.388459 4.5019 1.20402 4.29211L17.7114 0.0519592C18.5636 -0.166723 19.4517 0.325426 19.6799 1.14215L21.5612 7.87344L21.5613 7.87356ZM5.30186 9.06872C5.28186 9.06872 5.26201 9.07026 5.24296 9.07348L5.22535 9.0767V9.07701L5.20374 9.08207L5.19077 9.08591L5.18245 9.08852L5.17845 9.09005L5.17013 9.09297V9.09328L5.16212 9.09634L5.15412 9.09988L5.15012 9.10172L5.14211 9.10525L5.13811 9.10724L5.13043 9.11108L5.11938 9.11706L5.11538 9.11906V9.11936L5.10802 9.12335V9.12366L5.10466 9.12566L5.09729 9.13026L5.09393 9.13256L5.09025 9.13517L5.08689 9.13747L5.08321 9.14008L5.07984 9.14238L5.06976 9.15021L5.06672 9.15282V9.15313L5.06336 9.15543V9.15574L5.06032 9.15834L5.05695 9.16126L5.05391 9.16387L5.04783 9.1697C4.98924 9.22556 4.95035 9.30045 4.94234 9.38271V9.38332L4.94202 9.38746V9.38777L4.9417 9.39161V9.39222L4.94138 9.39606V9.40081L4.94106 9.40526V20.4565C4.94106 20.6494 5.10194 20.8036 5.30282 20.8036H22.3921C22.5899 20.8036 22.7538 20.6461 22.7538 20.4565V9.4143C22.7538 9.22201 22.593 9.06748 22.3921 9.06748H5.30282L5.30186 9.06872ZM11.724 18.3972H21.2904V19.5566H11.724V18.3972ZM13.7766 16.3241H21.2904V17.4838H13.7766V16.3241Z" fill="black"/>
</svg>
